<?xml version="1.0" encoding="UTF-8"?>
<svg id="Layer_1" xmlns="http://www.w3.org/2000/svg" version="1.1" viewBox="0 0 1000 1000">
  <!-- Generator: Adobe Illustrator 29.6.0, SVG Export Plug-In . SVG Version: 2.1.1 Build 207)  -->
  <g>
    <g>
      <path d="M323.08,393.9c0-97.55,79.37-176.92,176.92-176.92s176.92,79.37,176.92,176.92c0,36.25-10.96,69.98-29.74,98.06v29.59c29.72-34.22,47.74-78.88,47.74-127.66,0-107.48-87.44-194.92-194.92-194.92s-194.92,87.44-194.92,194.92c0,48.78,18.01,93.43,47.74,127.66v-29.6c-18.77-28.09-29.74-61.82-29.74-98.06Z"/>
      <g>
        <path d="M341.97,393.9c0,4.42,3.58,8,8,8h13.29c4.42,0,8-3.58,8-8s-3.58-8-8-8h-13.29c-4.42,0-8,3.58-8,8Z"/>
        <path d="M648.8,385.9h-13.29c-4.42,0-8,3.58-8,8,0,0,0,.02,0,.03,0,1.68.53,3.24,1.43,4.53,1.44,2.08,3.85,3.44,6.57,3.44h13.29c4.42,0,8-3.58,8-8s-3.58-8-8-8Z"/>
        <path d="M419.27,266.04c-2.87-3.36-7.92-3.75-11.28-.88-3.36,2.87-3.75,7.92-.88,11.28l8.63,10.1c1.58,1.85,3.83,2.8,6.09,2.8,1.84,0,3.69-.63,5.19-1.92,3.36-2.87,3.75-7.92.88-11.28l-8.63-10.1Z"/>
        <path d="M508,244.9c0-4.42-3.58-8-8-8s-8,3.58-8,8v76.36h16v-76.36Z"/>
        <path d="M591.39,276.43c2.87-3.36,2.48-8.41-.88-11.28-3.36-2.87-8.41-2.47-11.28.88l-47.19,55.22h21.05l38.31-44.82Z"/>
        <path d="M639.03,323.27c-1.2-4.25-5.61-6.74-9.87-5.54l-12.79,3.59c-3.92,1.1-6.32,4.94-5.75,8.86.05.34.11.67.21,1.01.74,2.63,2.71,4.57,5.11,5.4.82.28,1.7.44,2.59.44.72,0,1.44-.1,2.17-.3l12.79-3.59c4.25-1.2,6.73-5.61,5.54-9.87Z"/>
        <path d="M388.35,326.47c-.82-2.42-2.77-4.4-5.41-5.14l-12.79-3.59c-4.25-1.19-8.67,1.28-9.87,5.54-1.2,4.25,1.28,8.67,5.54,9.87l12.42,3.49.37.1c.72.2,1.45.3,2.17.3,3.49,0,6.71-2.31,7.7-5.84.45-1.61.38-3.25-.12-4.72Z"/>
      </g>
    </g>
    <path d="M603.09,376.3v-22.05c0-8.28-6.72-15-15-15h-181.97c-8.28,0-15,6.72-15,15v24.62l4.19,3.54-24.48,76.99v130.11c0,16.57,13.43,30,30,30h198.36c16.57,0,30-13.43,30-30v-130.43l-26.09-82.79ZM557.83,601.52h-34.31v-184.81s-9.91,2.54-18,11.34c-5.61,6.09-10.35,15.17-10.35,28.47v53.43c0,5.72,4.63,10.35,10.35,10.35v81.22h-49.97v-103.94c9.89-1.7,17.42-10.3,17.42-20.67v-47.42c0-3.2-2.75-5.76-6.01-5.45-2.85.27-4.94,2.83-4.94,5.69v36.79c0,2.49-2.01,4.5-4.5,4.5h-.99c-2.49,0-4.5-2.01-4.5-4.5v-36.79c0-2.86-2.09-5.41-4.94-5.69-3.27-.31-6.01,2.25-6.01,5.45v37.49c0,2.23-1.81,4.04-4.04,4.04h-.5c-2.49,0-4.5-2.01-4.5-4.5v-36.79c0-2.86-2.09-5.41-4.94-5.69-3.27-.31-6.01,2.25-6.01,5.45v47.42c0,10.04,7.05,18.42,16.47,20.5v104.11h-36.72c-6.62,0-12-5.38-12-12v-127.31l24.89-78.27h166.08l-.09.32-.61-.32-21.26,75.48v142.11ZM611.18,589.52c0,6.62-5.38,12-12,12h-22.51v-142.11l16.68-54.13,17.83,56.58v127.66Z"/>
  </g>
  <g>
    <g>
      <path d="M239.48,646.1h69.22v15.28h-25.15v79.09h-18.93v-79.09h-25.15v-15.28Z"/>
      <path d="M372.38,722.48h-37.58l-6.22,17.98h-19.87l33.93-94.5h22.04l33.93,94.5h-20.01l-6.22-17.98ZM353.58,667.86l-13.65,39.48h27.31l-13.65-39.48Z"/>
      <path d="M446.06,704.23h-15.82v36.23h-18.93v-94.36h34.74c22.71,0,34.07,12.84,34.07,29.2,0,14.33-9.73,28.93-34.07,28.93ZM445.25,688.95c10.68,0,15.41-5.27,15.41-13.65s-4.73-13.79-15.41-13.79h-15.01v27.44h15.01Z"/>
      <path d="M551.37,722.48h-37.58l-6.22,17.98h-19.87l33.93-94.5h22.04l33.93,94.5h-20.01l-6.22-17.98ZM532.58,667.86l-13.65,39.48h27.31l-13.65-39.48Z"/>
      <path d="M590.04,646.1h18.93v58.4c0,12.98,7.03,19.74,19.06,19.74s19.2-6.76,19.2-19.74v-58.4h19.06v58.27c0,24.88-17.85,37.04-38.53,37.04s-37.72-12.17-37.72-37.04v-58.27Z"/>
      <path d="M684.27,646.1h18.93v58.4c0,12.98,7.03,19.74,19.06,19.74s19.2-6.76,19.2-19.74v-58.4h19.06v58.27c0,24.88-17.85,37.04-38.53,37.04s-37.72-12.17-37.72-37.04v-58.27Z"/>
    </g>
    <g>
      <path d="M293.29,800.65h-13.56v-36.34h13.03c7.66,0,11.52,4.17,11.52,9.23,0,4.59-2.87,7.25-6.36,8.39,3.96.68,7.2,4.48,7.2,8.97,0,5.47-4.33,9.75-11.84,9.75ZM292.35,768.22h-7.87v11.78h7.98c4.43,0,6.99-2.19,6.99-5.89s-2.45-5.89-7.09-5.89ZM292.71,783.92h-8.24v12.83h8.39c4.69,0,7.51-2.35,7.51-6.31s-3.02-6.52-7.66-6.52Z"/>
      <path d="M322.11,764.31h4.74v36.34h-4.74v-36.34Z"/>
      <path d="M375.97,782.56c0,11.26-7.35,18.09-19.29,18.09h-11.31v-36.34h11.31c11.94,0,19.29,6.99,19.29,18.25ZM356.68,796.74c9.49,0,14.44-5.32,14.44-14.18s-4.95-14.39-14.44-14.39h-6.57v28.57h6.57Z"/>
      <path d="M416.99,764.31h20.54v3.86h-15.8v12.25h12.83v3.86h-12.83v16.37h-4.74v-36.34Z"/>
      <path d="M470.17,801.02c-10.22,0-18.25-7.67-18.25-18.56s8.03-18.56,18.25-18.56,18.25,7.66,18.25,18.56-7.98,18.56-18.25,18.56ZM470.17,796.9c7.66,0,13.4-5.58,13.4-14.44s-5.74-14.44-13.4-14.44-13.4,5.53-13.4,14.44,5.74,14.44,13.4,14.44Z"/>
      <path d="M516.83,764.31c8.55,0,12.62,4.74,12.62,10.69,0,4.64-2.55,9.07-8.66,10.43l9.12,15.22h-5.68l-8.66-14.86h-5.74v14.86h-4.74v-36.34h11.73ZM516.83,768.22h-6.99v13.76h6.99c5.37,0,7.72-2.92,7.72-6.99s-2.29-6.78-7.72-6.78Z"/>
      <path d="M585.12,800.65h-13.56v-36.34h13.04c7.66,0,11.52,4.17,11.52,9.23,0,4.59-2.87,7.25-6.36,8.39,3.96.68,7.2,4.48,7.2,8.97,0,5.47-4.33,9.75-11.83,9.75ZM584.18,768.22h-7.87v11.78h7.98c4.43,0,6.99-2.19,6.99-5.89s-2.45-5.89-7.09-5.89ZM584.55,783.92h-8.24v12.83h8.39c4.69,0,7.51-2.35,7.51-6.31s-3.02-6.52-7.67-6.52Z"/>
      <path d="M613.95,764.31h4.75v36.34h-4.75v-36.34Z"/>
      <path d="M634.95,764.31h24.61v3.86h-9.91v32.48h-4.74v-32.48h-9.96v-3.86Z"/>
      <path d="M695.38,768.17h-14.81v12.15h13.24v3.91h-13.24v12.51h14.81v3.91h-19.55v-36.39h19.55v3.91Z"/>
      <path d="M724.52,801.02c-7.3,0-12.46-4.07-12.57-10.06h5.06c.31,3.02,2.45,6.05,7.51,6.05,4.59,0,7.3-2.61,7.3-6.05,0-9.8-19.66-3.54-19.66-17.05,0-6,4.85-10.06,12.04-10.06s11.47,3.81,12.04,9.33h-5.21c-.31-2.45-2.61-5.21-7.04-5.27-3.91-.1-6.99,1.93-6.99,5.84,0,9.39,19.6,3.55,19.6,17,0,5.16-4.22,10.27-12.1,10.27Z"/>
    </g>
  </g>
</svg>