<?xml version="1.0" encoding="UTF-8"?>
<svg id="Layer_1" xmlns="http://www.w3.org/2000/svg" version="1.1" viewBox="0 0 1920 1080">
  <!-- Generator: Adobe Illustrator 29.6.0, SVG Export Plug-In . SVG Version: 2.1.1 Build 207)  -->
  <defs>
    <style>
      .st0 {
        fill: #ff7300;
      }
    </style>
  </defs>
  <g>
    <path d="M606.18,738.42h94.01v20.75h-34.15v107.41h-25.7v-107.41h-34.15v-20.75Z"/>
    <path d="M786.67,842.15h-51.04l-8.45,24.42h-26.99l46.08-128.34h29.93l46.09,128.34h-27.17l-8.45-24.42ZM761.15,767.98l-18.54,53.61h37.09l-18.54-53.61Z"/>
    <path d="M886.74,817.37h-21.48v49.21h-25.71v-128.16h47.19c30.85,0,46.27,17.44,46.27,39.66,0,19.46-13.22,39.29-46.27,39.29ZM885.64,796.62c14.5,0,20.93-7.16,20.93-18.54s-6.43-18.73-20.93-18.73h-20.38v37.27h20.38Z"/>
    <path d="M1029.77,842.15h-51.04l-8.45,24.42h-26.99l46.08-128.34h29.93l46.09,128.34h-27.17l-8.45-24.42ZM1004.25,767.98l-18.54,53.61h37.09l-18.54-53.61Z"/>
    <path d="M1082.29,738.42h25.7v79.32c0,17.63,9.55,26.81,25.89,26.81s26.07-9.18,26.07-26.81v-79.32h25.89v79.13c0,33.78-24.24,50.31-52.33,50.31s-51.23-16.52-51.23-50.31v-79.13Z"/>
    <path d="M1210.26,738.42h25.7v79.32c0,17.63,9.55,26.81,25.89,26.81s26.07-9.18,26.07-26.81v-79.32h25.89v79.13c0,33.78-24.24,50.31-52.33,50.31s-51.23-16.52-51.23-50.31v-79.13Z"/>
  </g>
  <g>
    <path class="st0" d="M679.26,948.32h-18.41v-49.35h17.7c10.41,0,15.65,5.66,15.65,12.53,0,6.23-3.89,9.84-8.64,11.4,5.38.92,9.77,6.09,9.77,12.18,0,7.44-5.88,13.24-16.07,13.24ZM677.98,904.28h-10.69v16h10.83c6.02,0,9.49-2.97,9.49-8s-3.33-8-9.63-8ZM678.48,925.59h-11.19v17.42h11.4c6.37,0,10.2-3.19,10.2-8.57s-4.11-8.85-10.41-8.85Z"/>
    <path class="st0" d="M718.41,898.96h6.44v49.35h-6.44v-49.35Z"/>
    <path class="st0" d="M791.55,923.75c0,15.3-9.98,24.57-26.2,24.57h-15.37v-49.35h15.37c16.22,0,26.2,9.49,26.2,24.78ZM765.35,943.01c12.89,0,19.61-7.22,19.61-19.26s-6.73-19.54-19.61-19.54h-8.92v38.8h8.92Z"/>
    <path class="st0" d="M847.27,898.96h27.9v5.24h-21.46v16.64h17.42v5.24h-17.42v22.24h-6.44v-49.35Z"/>
    <path class="st0" d="M919.49,948.82c-13.88,0-24.78-10.41-24.78-25.21s10.9-25.21,24.78-25.21,24.78,10.41,24.78,25.21-10.83,25.21-24.78,25.21ZM919.49,943.22c10.41,0,18.2-7.58,18.2-19.61s-7.79-19.62-18.2-19.62-18.2,7.51-18.2,19.62,7.79,19.61,18.2,19.61Z"/>
    <path class="st0" d="M982.85,898.96c11.61,0,17.14,6.44,17.14,14.52,0,6.3-3.47,12.32-11.75,14.16l12.39,20.68h-7.72l-11.75-20.18h-7.79v20.18h-6.44v-49.35h15.93ZM982.85,904.28h-9.49v18.69h9.49c7.29,0,10.48-3.97,10.48-9.49s-3.12-9.21-10.48-9.21Z"/>
    <path class="st0" d="M1075.6,948.32h-18.41v-49.35h17.7c10.41,0,15.65,5.66,15.65,12.53,0,6.23-3.89,9.84-8.64,11.4,5.38.92,9.77,6.09,9.77,12.18,0,7.44-5.88,13.24-16.07,13.24ZM1074.33,904.28h-10.69v16h10.83c6.02,0,9.49-2.97,9.49-8s-3.33-8-9.63-8ZM1074.82,925.59h-11.19v17.42h11.4c6.37,0,10.2-3.19,10.2-8.57s-4.11-8.85-10.41-8.85Z"/>
    <path class="st0" d="M1114.75,898.96h6.44v49.35h-6.44v-49.35Z"/>
    <path class="st0" d="M1143.28,898.96h33.42v5.24h-13.46v44.11h-6.44v-44.11h-13.53v-5.24Z"/>
    <path class="st0" d="M1225.35,904.2h-20.11v16.5h17.99v5.31h-17.99v16.99h20.11v5.31h-26.55v-49.43h26.55v5.31Z"/>
    <path class="st0" d="M1264.92,948.82c-9.91,0-16.92-5.52-17.07-13.67h6.87c.42,4.11,3.33,8.21,10.2,8.21,6.23,0,9.91-3.54,9.91-8.21,0-13.31-26.7-4.81-26.7-23.15,0-8.14,6.58-13.67,16.36-13.67s15.58,5.17,16.36,12.68h-7.08c-.42-3.33-3.54-7.08-9.56-7.15-5.31-.14-9.49,2.62-9.49,7.93,0,12.75,26.63,4.82,26.63,23.09,0,7.01-5.74,13.95-16.43,13.95Z"/>
  </g>
  <g>
    <path d="M719.72,395.91c0-132.49,107.79-240.28,240.28-240.28s240.28,107.79,240.28,240.28c0,49.23-14.89,95.04-40.39,133.18v40.19c40.37-46.48,64.83-107.12,64.83-173.37,0-145.97-118.75-264.72-264.72-264.72s-264.72,118.75-264.72,264.72c0,66.25,24.47,126.89,64.83,173.37v-40.19c-25.5-38.14-40.39-83.95-40.39-133.18Z"/>
    <g>
      <path d="M745.38,395.91c0,6,4.86,10.86,10.86,10.86h18.05c6,0,10.86-4.86,10.86-10.86s-4.86-10.86-10.86-10.86h-18.05c-6,0-10.86,4.86-10.86,10.86Z"/>
      <path d="M1162.09,385.04h-18.05c-6,0-10.86,4.86-10.86,10.86,0,.01,0,.03,0,.04,0,2.29.72,4.4,1.94,6.15,1.96,2.82,5.23,4.68,8.93,4.68h18.05c6,0,10.86-4.86,10.86-10.86s-4.86-10.86-10.86-10.86Z"/>
      <path d="M850.36,222.25c-3.9-4.56-10.76-5.1-15.32-1.2-4.56,3.9-5.1,10.76-1.2,15.32l11.72,13.72c2.15,2.51,5.2,3.81,8.26,3.81,2.5,0,5.01-.86,7.05-2.61,4.56-3.9,5.1-10.76,1.2-15.32l-11.72-13.72Z"/>
      <path d="M970.86,193.55c0-6-4.86-10.86-10.86-10.86s-10.86,4.86-10.86,10.86v103.7h21.73v-103.7Z"/>
      <path d="M1084.11,236.37c3.9-4.56,3.36-11.42-1.2-15.32-4.56-3.9-11.42-3.36-15.32,1.2l-64.09,74.99h28.58l52.03-60.87Z"/>
      <path d="M1148.81,299.98c-1.62-5.78-7.62-9.15-13.4-7.52l-17.37,4.88c-5.32,1.5-8.59,6.7-7.8,12.03.07.46.15.91.28,1.37,1,3.57,3.68,6.21,6.94,7.33,1.12.38,2.3.59,3.52.59.97,0,1.96-.13,2.94-.41l17.37-4.88c5.78-1.62,9.14-7.62,7.52-13.4Z"/>
      <path d="M808.37,304.32c-1.11-3.28-3.77-5.98-7.35-6.98l-17.37-4.88c-5.77-1.62-11.78,1.74-13.4,7.52-1.62,5.78,1.74,11.78,7.52,13.4l16.87,4.74.5.14c.98.28,1.97.41,2.94.41,4.75,0,9.11-3.13,10.45-7.93.62-2.19.51-4.41-.17-6.42Z"/>
    </g>
  </g>
  <path class="st0" d="M1100,372.01v-29.94c0-11.25-9.12-20.37-20.37-20.37h-247.14c-11.25,0-20.37,9.12-20.37,20.37v33.44l5.69,4.81-33.25,104.57v176.7c0,22.5,18.24,40.74,40.74,40.74h269.4c22.5,0,40.74-18.24,40.74-40.74v-177.14l-35.44-112.44ZM1038.53,677.88h-46.6v-251s-13.46,3.45-24.45,15.4c-7.62,8.27-14.06,20.6-14.06,38.67v72.56c0,7.76,6.29,14.06,14.06,14.06v110.31h-67.87v-141.16c13.43-2.31,23.65-13.99,23.65-28.08v-64.41c0-4.35-3.73-7.83-8.17-7.4-3.87.37-6.71,3.84-6.71,7.72v49.96c0,3.38-2.74,6.11-6.11,6.11h-1.34c-3.38,0-6.11-2.74-6.11-6.11v-49.96c0-3.88-2.84-7.35-6.71-7.72-4.44-.42-8.17,3.05-8.17,7.4v50.91c0,3.03-2.45,5.48-5.48,5.48h-.68c-3.38,0-6.11-2.74-6.11-6.11v-49.96c0-3.88-2.84-7.35-6.71-7.72-4.44-.42-8.17,3.05-8.17,7.4v64.41c0,13.63,9.57,25.02,22.36,27.84v141.4h-49.87c-8.99,0-16.3-7.31-16.3-16.3v-172.91l33.8-106.3h225.55l-.13.44-.82-.44-28.88,102.51v193ZM1111,661.58c0,8.99-7.31,16.3-16.3,16.3h-30.57v-193l22.65-73.52,24.22,76.84v173.38Z"/>
</svg>