<?xml version="1.0" encoding="UTF-8"?>
<svg id="Layer_1" xmlns="http://www.w3.org/2000/svg" version="1.1" viewBox="0 0 32 32">
  <!-- Generator: Adobe Illustrator 29.6.0, SVG Export Plug-In . SVG Version: 2.1.1 Build 207)  -->
  <defs>
    <style>
      .st0 {
        fill: #ff7300;
      }
    </style>
  </defs>
  <g>
    <path d="M3.23,23.16h3.39v.75h-1.23v3.88h-.93v-3.88h-1.23v-.75Z"/>
    <path d="M9.74,26.9h-1.84l-.3.88h-.97l1.66-4.63h1.08l1.66,4.63h-.98l-.3-.88ZM8.82,24.23l-.67,1.93h1.34l-.67-1.93Z"/>
    <path d="M13.36,26.01h-.78v1.78h-.93v-4.62h1.7c1.11,0,1.67.63,1.67,1.43,0,.7-.48,1.42-1.67,1.42ZM13.32,25.26c.52,0,.76-.26.76-.67s-.23-.68-.76-.68h-.74v1.35h.74Z"/>
    <path d="M18.52,26.9h-1.84l-.3.88h-.97l1.66-4.63h1.08l1.66,4.63h-.98l-.3-.88ZM17.6,24.23l-.67,1.93h1.34l-.67-1.93Z"/>
    <path d="M20.41,23.16h.93v2.86c0,.64.34.97.93.97s.94-.33.94-.97v-2.86h.93v2.86c0,1.22-.87,1.82-1.89,1.82s-1.85-.6-1.85-1.82v-2.86Z"/>
    <path d="M25.03,23.16h.93v2.86c0,.64.34.97.93.97s.94-.33.94-.97v-2.86h.93v2.86c0,1.22-.87,1.82-1.89,1.82s-1.85-.6-1.85-1.82v-2.86Z"/>
  </g>
  <g>
    <path class="st0" d="M5.87,30.74h-.66v-1.78h.64c.38,0,.56.2.56.45,0,.22-.14.36-.31.41.19.03.35.22.35.44,0,.27-.21.48-.58.48ZM5.82,29.15h-.39v.58h.39c.22,0,.34-.11.34-.29s-.12-.29-.35-.29ZM5.84,29.92h-.4v.63h.41c.23,0,.37-.12.37-.31s-.15-.32-.38-.32Z"/>
    <path class="st0" d="M7.28,28.95h.23v1.78h-.23v-1.78Z"/>
    <path class="st0" d="M9.92,29.85c0,.55-.36.89-.95.89h-.55v-1.78h.55c.59,0,.95.34.95.89ZM8.98,30.54c.47,0,.71-.26.71-.7s-.24-.71-.71-.71h-.32v1.4h.32Z"/>
    <path class="st0" d="M11.93,28.95h1.01v.19h-.77v.6h.63v.19h-.63v.8h-.23v-1.78Z"/>
    <path class="st0" d="M14.54,30.75c-.5,0-.89-.38-.89-.91s.39-.91.89-.91.89.38.89.91-.39.91-.89.91ZM14.54,30.55c.38,0,.66-.27.66-.71s-.28-.71-.66-.71-.66.27-.66.71.28.71.66.71Z"/>
    <path class="st0" d="M16.82,28.95c.42,0,.62.23.62.52,0,.23-.13.44-.42.51l.45.75h-.28l-.42-.73h-.28v.73h-.23v-1.78h.57ZM16.82,29.15h-.34v.67h.34c.26,0,.38-.14.38-.34s-.11-.33-.38-.33Z"/>
    <path class="st0" d="M20.17,30.74h-.66v-1.78h.64c.38,0,.56.2.56.45,0,.22-.14.36-.31.41.19.03.35.22.35.44,0,.27-.21.48-.58.48ZM20.13,29.15h-.39v.58h.39c.22,0,.34-.11.34-.29s-.12-.29-.35-.29ZM20.14,29.92h-.4v.63h.41c.23,0,.37-.12.37-.31s-.15-.32-.38-.32Z"/>
    <path class="st0" d="M21.58,28.95h.23v1.78h-.23v-1.78Z"/>
    <path class="st0" d="M22.61,28.95h1.21v.19h-.49v1.59h-.23v-1.59h-.49v-.19Z"/>
    <path class="st0" d="M25.58,29.14h-.73v.6h.65v.19h-.65v.61h.73v.19h-.96v-1.78h.96v.19Z"/>
    <path class="st0" d="M27,30.75c-.36,0-.61-.2-.62-.49h.25c.02.15.12.3.37.3.22,0,.36-.13.36-.3,0-.48-.96-.17-.96-.84,0-.29.24-.49.59-.49s.56.19.59.46h-.26c-.02-.12-.13-.26-.34-.26-.19,0-.34.09-.34.29,0,.46.96.17.96.83,0,.25-.21.5-.59.5Z"/>
  </g>
  <g>
    <path d="M7.33,10.8c0-4.78,3.89-8.67,8.67-8.67s8.67,3.89,8.67,8.67c0,1.78-.54,3.43-1.46,4.81v1.45c1.46-1.68,2.34-3.87,2.34-6.26,0-5.27-4.29-9.55-9.55-9.55S6.45,5.53,6.45,10.8c0,2.39.88,4.58,2.34,6.26v-1.45c-.92-1.38-1.46-3.03-1.46-4.81Z"/>
    <g>
      <path d="M8.25,10.8c0,.22.18.39.39.39h.65c.22,0,.39-.18.39-.39s-.18-.39-.39-.39h-.65c-.22,0-.39.18-.39.39Z"/>
      <path d="M23.29,10.41h-.65c-.22,0-.39.18-.39.39,0,0,0,0,0,0,0,.08.03.16.07.22.07.1.19.17.32.17h.65c.22,0,.39-.18.39-.39s-.18-.39-.39-.39Z"/>
      <path d="M12.04,4.53c-.14-.16-.39-.18-.55-.04-.16.14-.18.39-.04.55l.42.5c.08.09.19.14.3.14.09,0,.18-.03.25-.09.16-.14.18-.39.04-.55l-.42-.5Z"/>
      <path d="M16.39,3.5c0-.22-.18-.39-.39-.39s-.39.18-.39.39v3.74h.78v-3.74Z"/>
      <path d="M20.48,5.04c.14-.16.12-.41-.04-.55-.16-.14-.41-.12-.55.04l-2.31,2.71h1.03l1.88-2.2Z"/>
      <path d="M22.81,7.34c-.06-.21-.27-.33-.48-.27l-.63.18c-.19.05-.31.24-.28.43,0,.02,0,.03.01.05.04.13.13.22.25.26.04.01.08.02.13.02.04,0,.07,0,.11-.01l.63-.18c.21-.06.33-.28.27-.48Z"/>
      <path d="M10.53,7.49c-.04-.12-.14-.22-.27-.25l-.63-.18c-.21-.06-.42.06-.48.27-.06.21.06.42.27.48l.61.17h.02s.07.02.11.02c.17,0,.33-.11.38-.29.02-.08.02-.16,0-.23Z"/>
    </g>
  </g>
  <path class="st0" d="M21.05,9.94v-1.08c0-.41-.33-.74-.74-.74h-8.92c-.41,0-.74.33-.74.74v1.21l.21.17-1.2,3.77v6.38c0,.81.66,1.47,1.47,1.47h9.72c.81,0,1.47-.66,1.47-1.47v-6.39l-1.28-4.06ZM18.83,20.98h-1.68v-9.06s-.49.12-.88.56c-.27.3-.51.74-.51,1.4v2.62c0,.28.23.51.51.51v3.98h-2.45v-5.09c.48-.08.85-.5.85-1.01v-2.32c0-.16-.13-.28-.29-.27-.14.01-.24.14-.24.28v1.8c0,.12-.1.22-.22.22h-.05c-.12,0-.22-.1-.22-.22v-1.8c0-.14-.1-.27-.24-.28-.16-.02-.29.11-.29.27v1.84c0,.11-.09.2-.2.2h-.02c-.12,0-.22-.1-.22-.22v-1.8c0-.14-.1-.27-.24-.28-.16-.02-.29.11-.29.27v2.32c0,.49.35.9.81,1v5.1h-1.8c-.32,0-.59-.26-.59-.59v-6.24l1.22-3.84h8.14v.02s-.03-.02-.03-.02l-1.04,3.7v6.96ZM21.45,20.39c0,.32-.26.59-.59.59h-1.1v-6.96l.82-2.65.87,2.77v6.26Z"/>
</svg>